<mxfile host="app.diagrams.net" modified="2023-01-18T09:58:28.548Z" agent="5.0 (Windows NT 10.0; Win64; x64) AppleWebKit/537.36 (KHTML, like Gecko) Chrome/107.0.0.0 Safari/537.36 OPR/93.0.0.0" etag="bBYoFc0W30_vFGRHB7nH" version="20.7.3" type="github">
  <diagram name="Page-1" id="e7e014a7-5840-1c2e-5031-d8a46d1fe8dd">
    <mxGraphModel dx="1393" dy="804" grid="1" gridSize="10" guides="1" tooltips="1" connect="1" arrows="1" fold="1" page="1" pageScale="1" pageWidth="1169" pageHeight="826" background="none" math="0" shadow="0">
      <root>
        <mxCell id="0" />
        <mxCell id="1" parent="0" />
        <mxCell id="2" value="User" style="swimlane;whiteSpace=wrap" parent="1" vertex="1">
          <mxGeometry x="164.5" y="128" width="280" height="772" as="geometry" />
        </mxCell>
        <mxCell id="5" value="" style="ellipse;shape=startState;fillColor=#000000;strokeColor=#ff0000;" parent="2" vertex="1">
          <mxGeometry x="100" y="40" width="30" height="30" as="geometry" />
        </mxCell>
        <mxCell id="11" value="" style="endArrow=open;strokeColor=#FF0000;endFill=1;rounded=0" parent="2" target="10" edge="1">
          <mxGeometry relative="1" as="geometry">
            <mxPoint x="130.5" y="270" as="sourcePoint" />
          </mxGeometry>
        </mxCell>
        <mxCell id="BsI_QTeGxYSLv_yCxzYX-48" value="Make orderList" style="rounded=0;whiteSpace=wrap;html=1;" vertex="1" parent="2">
          <mxGeometry x="45.5" y="112" width="120" height="60" as="geometry" />
        </mxCell>
        <mxCell id="BsI_QTeGxYSLv_yCxzYX-50" value="display total amount" style="rounded=0;whiteSpace=wrap;html=1;" vertex="1" parent="2">
          <mxGeometry x="45.5" y="202" width="120" height="60" as="geometry" />
        </mxCell>
        <mxCell id="BsI_QTeGxYSLv_yCxzYX-51" value="choose payment method" style="rounded=0;whiteSpace=wrap;html=1;" vertex="1" parent="2">
          <mxGeometry x="45.5" y="272" width="120" height="60" as="geometry" />
        </mxCell>
        <mxCell id="7" value="Register credit/debit card&#xa;page" style="" parent="2" vertex="1">
          <mxGeometry x="30.5" y="362" width="150" height="50" as="geometry" />
        </mxCell>
        <mxCell id="BsI_QTeGxYSLv_yCxzYX-57" value="Fill card information form" style="" vertex="1" parent="2">
          <mxGeometry x="30.5" y="452" width="150" height="50" as="geometry" />
        </mxCell>
        <mxCell id="BsI_QTeGxYSLv_yCxzYX-61" value="confirmation of payment" style="rounded=0;whiteSpace=wrap;html=1;" vertex="1" parent="2">
          <mxGeometry x="45.5" y="682" width="120" height="60" as="geometry" />
        </mxCell>
        <mxCell id="3" value="Rider" style="swimlane;whiteSpace=wrap" parent="1" vertex="1">
          <mxGeometry x="444.5" y="128" width="280" height="570" as="geometry" />
        </mxCell>
        <mxCell id="23" value="no" style="edgeStyle=elbowEdgeStyle;elbow=horizontal;align=left;verticalAlign=top;endArrow=open;endSize=8;strokeColor=#FF0000;endFill=1;rounded=0" parent="3" target="30" edge="1">
          <mxGeometry x="-1" relative="1" as="geometry">
            <mxPoint x="190" y="305" as="targetPoint" />
            <mxPoint x="190.5" y="264.75" as="sourcePoint" />
          </mxGeometry>
        </mxCell>
        <mxCell id="24" value="" style="endArrow=open;strokeColor=#FF0000;endFill=1;rounded=0" parent="3" target="21" edge="1">
          <mxGeometry relative="1" as="geometry">
            <mxPoint x="130" y="245" as="sourcePoint" />
          </mxGeometry>
        </mxCell>
        <mxCell id="4" value="Vendor" style="swimlane;whiteSpace=wrap" parent="1" vertex="1">
          <mxGeometry x="724.5" y="128" width="225.5" height="1032" as="geometry" />
        </mxCell>
        <mxCell id="BsI_QTeGxYSLv_yCxzYX-62" value="" style="rounded=0;whiteSpace=wrap;html=1;" vertex="1" parent="4">
          <mxGeometry x="45.5" y="682" width="120" height="60" as="geometry" />
        </mxCell>
        <mxCell id="BsI_QTeGxYSLv_yCxzYX-41" value="system" style="swimlane;whiteSpace=wrap" vertex="1" parent="1">
          <mxGeometry x="950" y="128" width="225.5" height="782" as="geometry" />
        </mxCell>
        <mxCell id="BsI_QTeGxYSLv_yCxzYX-49" value="calculate the total payment" style="rounded=0;whiteSpace=wrap;html=1;" vertex="1" parent="BsI_QTeGxYSLv_yCxzYX-41">
          <mxGeometry x="50" y="162" width="120" height="60" as="geometry" />
        </mxCell>
        <mxCell id="BsI_QTeGxYSLv_yCxzYX-53" value="is it credit card?" style="rhombus;whiteSpace=wrap;html=1;" vertex="1" parent="BsI_QTeGxYSLv_yCxzYX-41">
          <mxGeometry x="72.75" y="252" width="80" height="80" as="geometry" />
        </mxCell>
        <mxCell id="BsI_QTeGxYSLv_yCxzYX-54" value="is it online banking?" style="rhombus;whiteSpace=wrap;html=1;" vertex="1" parent="BsI_QTeGxYSLv_yCxzYX-41">
          <mxGeometry x="72.75" y="342" width="80" height="80" as="geometry" />
        </mxCell>
        <mxCell id="BsI_QTeGxYSLv_yCxzYX-55" value="redirect to third party bank system" style="rounded=0;whiteSpace=wrap;html=1;" vertex="1" parent="BsI_QTeGxYSLv_yCxzYX-41">
          <mxGeometry x="50" y="432" width="120" height="60" as="geometry" />
        </mxCell>
        <mxCell id="BsI_QTeGxYSLv_yCxzYX-58" value="check card validation" style="rounded=0;whiteSpace=wrap;html=1;" vertex="1" parent="BsI_QTeGxYSLv_yCxzYX-41">
          <mxGeometry x="50" y="510" width="120" height="60" as="geometry" />
        </mxCell>
        <mxCell id="BsI_QTeGxYSLv_yCxzYX-59" value="is it valid?" style="rhombus;whiteSpace=wrap;html=1;" vertex="1" parent="BsI_QTeGxYSLv_yCxzYX-41">
          <mxGeometry x="72.75" y="592" width="80" height="80" as="geometry" />
        </mxCell>
        <mxCell id="BsI_QTeGxYSLv_yCxzYX-60" value="update card to profile information" style="rounded=0;whiteSpace=wrap;html=1;" vertex="1" parent="BsI_QTeGxYSLv_yCxzYX-41">
          <mxGeometry x="50" y="698" width="120" height="60" as="geometry" />
        </mxCell>
        <mxCell id="BsI_QTeGxYSLv_yCxzYX-47" value="verify card valid" style="rounded=1;whiteSpace=wrap;html=1;" vertex="1" parent="1">
          <mxGeometry x="830" y="40" width="120" height="60" as="geometry" />
        </mxCell>
        <mxCell id="BsI_QTeGxYSLv_yCxzYX-56" style="edgeStyle=orthogonalEdgeStyle;rounded=0;orthogonalLoop=1;jettySize=auto;html=1;entryX=1;entryY=0.5;entryDx=0;entryDy=0;" edge="1" parent="1" source="BsI_QTeGxYSLv_yCxzYX-53" target="7">
          <mxGeometry relative="1" as="geometry">
            <Array as="points">
              <mxPoint x="684" y="450" />
              <mxPoint x="684" y="515" />
            </Array>
          </mxGeometry>
        </mxCell>
      </root>
    </mxGraphModel>
  </diagram>
</mxfile>
